<?xml version="1.0" encoding="utf-8"?>
<!-- Generator: Adobe Illustrator 28.2.0, SVG Export Plug-In . SVG Version: 6.00 Build 0)  -->
<svg version="1.1" id="Capa_1" xmlns="http://www.w3.org/2000/svg" xmlns:xlink="http://www.w3.org/1999/xlink" x="0px" y="0px"
	 viewBox="0 0 741.6 283.4" style="enable-background:new 0 0 741.6 283.4;" xml:space="preserve">
<style type="text/css">
	.st0{fill:#1FA343;}
</style>
<g id="XMLID_212_">
	<g id="XMLID_263_">
		<path id="XMLID_265_" class="st0" d="M219.8,205.8c-1.5-3.1-4.1-3.6-7.1-2.9c-1.3,0.3-2.6,0.9-3.9,1.5
			c-8.5,3.5-16.9,7.3-25.5,10.6c-4.8,1.9-9.9,3.1-14.9,4.4c-1.8,0.5-4.4,1-5-1.6c-0.5-2.4,2-2.5,3.7-3.1c5.8-2.2,11.7-4.2,17.4-6.6
			c9.6-4.2,18.2-10,26.2-16.7c2.7-2.3,3.1-5,1.2-8c-2-3.2-4.7-2.4-7.3-0.9c-1.9,1.1-3.7,2.3-5.6,3.5c-8,4.9-15.7,10.4-24.8,13.2
			c-1.8,0.5-4.4,1.7-5.2-0.9c-0.7-2.3,2.1-2.5,3.6-3.2c9.3-4.5,17.9-9.8,25-17.4c2.9-3.1,5.7-6.7,2.7-10.5
			c-3.2-4.2-7.6-2.1-11.3,0.3c0,0,0,0-0.1,0c2.9-3.2,5-6.5,6.5-10c3.4-7.3,14.7-40.3,4.7-63c-11.7-26.4-38.2-40.3-66.1-48.7
			C111.1,40.7,93.4,42.4,76,48c-6.3,2-12.3,4.7-18.4,7.3c-3.4,1.4-5,4.1-3.6,7.8c1.4,3.6,4.3,3.7,7.5,2.7c3.4-1.1,6.8-2.3,10.3-3.3
			c9.9-3.1,20-5.9,30.5-5.6c1.7,0.1,4.2-0.1,4.2,2.3c0,2.3-2.5,1.5-3.9,1.6c-14.3,1.3-27.9,5-40.8,11.3c-7.2,3.5-14.3,7.3-20.4,12.5
			c-2.3,1.9-3.2,4.1-1.8,6.8c1.5,3,4.2,3.5,7.2,2.7c1.3-0.3,2.6-1,3.9-1.6c8.4-3.8,16.7-7.7,25.2-11.3c4.8-2,9.8-3.4,14.8-4.8
			c1.8-0.5,4.4-1.1,5,1.5c0.6,2.4-2,2.5-3.6,3.2c-5.7,2.3-11.6,4.5-17.2,7.1c-9.5,4.5-18,10.4-25.8,17.4c-2.6,2.3-3,5.1-1,8
			c2.1,3.1,4.8,2.3,7.3,0.7c1.9-1.1,3.7-2.4,5.5-3.7c7.9-5.1,15.4-10.8,24.5-13.9c1.8-0.6,4.3-1.8,5.2,0.7c0.8,2.3-2,2.5-3.5,3.3
			c-9.1,4.7-17.6,10.3-24.5,18c-2.8,3.1-5.5,6.8-2.5,10.6c2.8,3.4,6.2,2.5,9.4,0.6c-1.3,1.6-2.5,3.3-3.5,5c0-0.1,0-0.1,0-0.2
			c-2.9,4.9-16.5,39.6-6.6,63.6c11,26.7,37.2,41.3,64.8,50.4c22.6,5.7,40.4,4.4,58-0.7c6.3-1.9,12.5-4.4,18.6-6.8
			c3.4-1.3,5.1-3.9,3.8-7.7c-1.3-3.6-4.2-3.8-7.4-2.8c-3.4,1-6.9,2.1-10.4,3.1c-10,2.9-20.1,5.4-30.7,4.8c-1.7-0.1-4.2,0-4.2-2.4
			c0-2.3,2.5-1.4,3.9-1.5c14.3-0.9,28.1-4.3,41.1-10.2c7.3-3.3,14.4-6.9,20.8-11.9C220.2,210.7,221.2,208.6,219.8,205.8z M129,111.6
			c0.8,0,1.6,0,2.3,0c33.4,0,60.5,15.4,60.9,35c0.2,9.5-5.9,18.6-17.3,25.7c-11.7,7.4-27.5,11.6-44.4,12
			c-16.9,0.4-32.9-3.2-44.9-10.1c-11.6-6.6-18.1-15.5-18.3-24.9C66.9,129.2,94.6,112.3,129,111.6z"/>
		<path id="XMLID_264_" class="st0" d="M98.7,157.5c1.1,0.8,2.3,1,3.5,0.4c1.3-0.6,2-1.7,2-3.2c0-2.4,0-14.7,0-14.7
			c0.4-1.2,1.2-1.8,2.4-1.9c1.1-0.1,2,0.7,2.5,1.9c0,0-0.2,13.1,0.1,15.8c0.5,4.2,3.9,7.7,8.2,8c0.3,0,0.6,0,1,0
			c4.4-0.1,8-3.9,8.9-7.2c0.1-0.3,0.3-1.8,0.3-1.9c0,0,0-0.1,0-0.1c0-2.4-0.1-14.7-0.1-14.7c0.4-1.2,1.2-1.8,2.4-1.9
			c1.1-0.1,2,0.7,2.5,1.9c0,0-0.2,13.1,0.1,15.8c0.5,4.2,3.9,7.7,8.2,8c0.2,0,0.4,0,0.6,0l0,0c0.1,0,0.1,0,0.2,0c0.1,0,0.2,0,0.3,0
			c0.2,0,0.3,0,0.5,0c4.3-0.4,7.7-3.8,8.2-8c0.3-2.7,0.1-15.8,0.1-15.8c0.5-1.3,1.4-2,2.5-1.9c1.2,0.1,2,0.7,2.4,1.9
			c0,0,0,12.4,0,14.7c0,1.4,0.7,2.5,2,3.2c1.2,0.6,2.4,0.4,3.5-0.4c0.9-0.7,1.3-1.6,1.3-2.7c0-2.4,0-4.8,0-7.2c0-2.3,0-4.6,0-6.9
			c0-0.4-0.1-0.7-0.1-1.3c-0.5-3.9-3.2-6.9-7.1-7.8c-4.9-1.2-10.1,2.3-11,7.3c0,0.2-0.2,1.4-0.2,1.9c0,2.2,0.1,11.2,0.1,13.4
			c0,0.1,0,0.2,0,0.2c0,0.3-0.1,0.6-0.2,0.8c0,0,0,0,0,0c-0.3,0.8-1.1,1.4-2,1.5c-0.1,0-0.3,0-0.4,0c-1.1-0.2-2.1-1.1-2.2-2.4
			c0-1.9,0.1-11.3,0.1-13.6c0-0.4-0.1-1.7-0.2-1.9c-0.9-5-6-8.5-11-7.3c-3.9,0.9-6.6,4-7.1,7.8c-0.1,0.6-0.1,0.9-0.1,1.3
			c0,2.3,0,4.6,0,6.9c0,2,0,4,0,6l0,0c0,0.6-0.1,1.2-0.2,1.7c-0.3,1.1-1.3,1.6-2.4,1.5c-1.1-0.2-2.1-1.1-2.2-2.4
			c0-1.9,0.1-11.3,0.1-13.6c0-0.4-0.1-1.7-0.2-1.9c-0.9-5-6-8.5-11-7.3c-3.9,0.9-6.6,4-7.1,7.8c-0.1,0.6-0.1,0.9-0.1,1.3
			c0,2.3,0,4.6,0,6.9c0,2.4,0,4.8,0,7.2C97.4,155.9,97.8,156.8,98.7,157.5z"/>
	</g>
	<g>
		<path class="st0" d="M273.1,127c1,0,1.8-0.3,2.4-1c0.7-0.7,1-1.5,1-2.4v-20.8h16.6c0.9,0,1.6-0.3,2.3-1c0.6-0.6,0.9-1.4,0.9-2.3
			c0-0.9-0.3-1.6-0.9-2.3s-1.4-0.9-2.3-0.9h-16.6v-18h21.8c0.9,0,1.6-0.3,2.3-1c0.6-0.6,0.9-1.4,0.9-2.3c0-0.9-0.3-1.6-0.9-2.3
			c-0.6-0.6-1.4-0.9-2.3-0.9h-25.3c-1,0-1.8,0.3-2.4,1c-0.7,0.7-1,1.5-1,2.4v48.3c0,1,0.3,1.8,1,2.4
			C271.3,126.7,272.1,127,273.1,127z"/>
		<path class="st0" d="M319.9,127.4c2.4,0,4.6-0.3,6.4-0.8c1.9-0.6,3.4-1.3,4.5-2.2c1.1-0.9,2.1-2.1,2.7-3.5
			c0.7-1.3,1.1-2.7,1.4-4.1c0.2-1.3,0.4-2.9,0.4-4.5V91.7c0-0.9-0.3-1.7-0.9-2.3c-1.3-1.3-3.3-1.2-4.6,0c-0.7,0.6-1,1.4-1,2.3v20.6
			c0,1.3-0.1,2.5-0.4,3.5c-0.2,1-0.7,1.9-1.3,2.7c-0.6,0.8-1.4,1.4-2.6,1.9c-1.2,0.5-2.7,0.7-4.6,0.7s-3.4-0.2-4.6-0.7
			c-1.2-0.4-2-1.1-2.6-1.9c-0.6-0.8-1-1.8-1.3-2.7c-0.3-1-0.4-2.2-0.4-3.5V91.7c0-0.9-0.3-1.7-1-2.3c-1.3-1.3-3.4-1.2-4.7,0
			c-0.6,0.6-0.9,1.4-0.9,2.3v20.6c0,1.7,0.1,3.2,0.4,4.5c0.2,1.4,0.7,2.8,1.4,4.1c0.7,1.4,1.6,2.5,2.8,3.5c1.1,0.9,2.6,1.7,4.5,2.2
			C315.4,127.1,317.5,127.4,319.9,127.4z"/>
		<path class="st0" d="M359.5,94c1.8,0,3.3,0.2,4.4,0.7c1.1,0.4,1.9,1.1,2.5,1.9c0.6,0.9,1.1,1.9,1.3,3c0.3,1.1,0.4,2.5,0.4,4.1v20
			c0,0.9,0.3,1.7,1,2.3c0.6,0.6,1.4,0.9,2.3,0.9c0.9,0,1.7-0.3,2.3-0.9c0.6-0.6,0.9-1.4,0.9-2.3v-21c0-1.5-0.1-2.9-0.3-4.2
			c-0.2-1.3-0.7-2.6-1.4-3.9c-0.7-1.3-1.6-2.5-2.7-3.4c-1.1-0.9-2.6-1.7-4.5-2.3c-1.8-0.6-4-0.9-6.4-0.9c-2.6,0-4.9,0.6-6.9,1.7
			c-1.1,0.6-2.1,1.4-2.8,2.2v-0.1c0-0.9-0.3-1.7-0.9-2.3c-1.3-1.2-3.4-1.2-4.7,0c-0.6,0.6-1,1.4-1,2.3v32c0,0.9,0.3,1.7,1,2.3
			c1.3,1.2,3.4,1.2,4.7,0c0.6-0.6,0.9-1.4,0.9-2.3v-19.4C349.8,97.4,353,94,359.5,94z"/>
		<path class="st0" d="M408.9,123.2c3-2.8,4.5-6.9,4.5-12.1v-39c0-0.9-0.3-1.7-1-2.3c-1.3-1.2-3.4-1.2-4.7,0
			c-0.6,0.6-0.9,1.4-0.9,2.3v19.8c-0.9-0.8-2-1.6-3.2-2.2c-2-1.1-4.3-1.6-6.7-1.6c-11,0-16.6,6.6-16.6,19.6c0,6.5,1.5,11.5,4.4,14.8
			c2.9,3.3,7.2,5,12.5,5C402,127.4,406,126,408.9,123.2z M406.8,111.1c0,3.4-0.9,5.9-2.6,7.6c-1.7,1.7-4,2.5-7,2.5
			c-7,0-10.3-4.5-10.3-13.6c0-4.6,0.9-8,2.7-10.3c1.8-2.2,4.3-3.3,7.7-3.3c1.3,0,2.5,0.2,3.6,0.7c1.1,0.5,2.1,1,2.7,1.5
			c0.7,0.6,1.3,1.2,1.9,2c0.7,0.9,1,1.4,1.1,1.6c0.1,0.2,0.2,0.4,0.3,0.6V111.1z"/>
		<path class="st0" d="M434.2,103.5c-4.4,0-8,1.1-10.6,3.1c-2.6,2.1-4,5.1-4,8.7c0,3.8,1.3,6.8,3.9,8.9c2.6,2.1,6.1,3.1,10.5,3.1
			c2.5,0,4.9-0.5,7.1-1.6c1.4-0.7,2.5-1.5,3.4-2.5v0.4c0,0.9,0.3,1.6,1,2.3c1.3,1.2,3.3,1.2,4.6,0c0.7-0.6,1-1.4,1-2.3v-21.6
			c0-4.3-1.3-7.8-4-10.3c-2.6-2.5-6.3-3.8-11.1-3.8c-3.2,0-6,0.6-8.3,1.8c-2.3,1.2-4.1,2.8-5.4,4.8c-0.3,0.6-0.5,1.1-0.5,1.7
			c0,0.8,0.3,1.6,0.9,2.2c1.2,1.3,3.4,1.2,4.8-0.5c1.2-1.3,2.4-2.3,3.7-2.9c1.3-0.6,2.9-0.9,4.8-0.9c2.7,0,4.8,0.7,6.3,2.1
			c1.5,1.4,2.3,3.3,2.3,5.8v1.3H434.2z M444.5,109.5v2.5c0,3-1,5.2-2.9,6.8c-2,1.6-4.4,2.5-7.1,2.5c-2.8,0-4.9-0.5-6.2-1.6
			c-1.3-1-1.9-2.4-1.9-4.3c0-2,0.7-3.4,2-4.4c1.4-1,3.4-1.5,5.9-1.5H444.5z"/>
		<path class="st0" d="M487.1,120.4c0-0.8-0.3-1.6-0.9-2.2c-1-1-2.5-1.3-4.1-0.2c-0.9,0.6-1.6,1.1-2.2,1.5c-0.5,0.3-1.4,0.7-2.7,1.1
			c-1.2,0.4-2.5,0.6-3.8,0.6c-7,0-10.3-4.5-10.3-13.6c0-9.1,3.4-13.6,10.3-13.6c1.1,0,2.2,0.1,3.1,0.3c0.9,0.2,1.7,0.5,2.3,0.9
			c0.7,0.4,1.1,0.8,1.4,1.1c0.3,0.3,0.7,0.7,1.1,1.1c1.3,1.5,3.4,1.5,4.6,0.3c0.6-0.6,0.9-1.3,0.9-2.2c0-0.6-0.2-1.3-0.7-2
			c-1-1.4-2.6-2.7-4.7-3.9c-2.1-1.2-4.8-1.8-8-1.8c-5.4,0-9.6,1.7-12.6,4.9c-2.9,3.3-4.4,8.2-4.4,14.7c0,6.5,1.5,11.5,4.4,14.8
			c3,3.3,7.2,5,12.6,5c4.6,0,8.8-1.5,12.4-4.5C486.7,122.2,487.1,121.4,487.1,120.4z"/>
		<path class="st0" d="M494.4,89.4c-0.6,0.6-1,1.4-1,2.3v32c0,0.9,0.3,1.7,1,2.3c0.6,0.6,1.4,0.9,2.3,0.9c0.9,0,1.7-0.3,2.3-0.9
			c0.6-0.6,0.9-1.4,0.9-2.3v-32c0-0.9-0.3-1.7-0.9-2.3C497.8,88.2,495.7,88.2,494.4,89.4z"/>
		<path class="st0" d="M496.7,82.6c1.2,0,2.1-0.3,2.7-1c0.7-0.7,1-1.6,1-2.8c0-2.5-1.3-3.9-3.7-3.9c-2.4,0-3.8,1.4-3.8,3.9
			c0,1.2,0.3,2.1,1,2.8C494.7,82.3,495.6,82.6,496.7,82.6z"/>
		<path class="st0" d="M519.6,85.3c0.5,0.4,1.1,0.6,1.6,0.6c0.6,0,1.2-0.3,1.8-0.8l7.6-7.7c0.6-0.6,0.9-1.2,0.9-1.9
			c0-0.7-0.4-1.5-1.2-2.2c-0.8-0.6-1.6-0.9-2.3-0.9c-0.7,0.1-1.3,0.4-1.8,1l-7,8.5l0,0C518.3,83.1,518.4,84.3,519.6,85.3z"/>
		<path class="st0" d="M523.6,127.4c5.5,0,9.8-1.7,12.8-5c3-3.3,4.5-8.3,4.5-14.7s-1.5-11.4-4.5-14.7c-3-3.3-7.3-5-12.8-5
			c-5.4,0-9.7,1.7-12.7,5c-3,3.3-4.5,8.2-4.5,14.7s1.5,11.4,4.6,14.7C514,125.7,518.2,127.4,523.6,127.4z M513,107.7
			c0-9.1,3.5-13.6,10.6-13.6c7.2,0,10.6,4.4,10.6,13.6c0,9.2-3.5,13.6-10.6,13.6C516.5,121.3,513,116.8,513,107.7z"/>
		<path class="st0" d="M578.7,102.7c0-1.5-0.1-2.9-0.3-4.2c-0.2-1.3-0.7-2.6-1.4-3.9c-0.7-1.3-1.6-2.5-2.7-3.4
			c-1.1-0.9-2.6-1.7-4.5-2.3c-1.8-0.6-4-0.9-6.4-0.9c-2.6,0-4.9,0.6-6.9,1.7c-1.1,0.6-2.1,1.4-2.8,2.2v-0.1c0-0.9-0.3-1.7-0.9-2.3
			c-1.3-1.2-3.4-1.2-4.7,0c-0.6,0.6-1,1.4-1,2.3v32c0,0.9,0.3,1.7,1,2.3c1.3,1.2,3.4,1.2,4.7,0c0.6-0.6,0.9-1.4,0.9-2.3v-19.4
			c0-6.9,3.2-10.3,9.7-10.3c1.8,0,3.2,0.2,4.4,0.7c1.1,0.4,1.9,1.1,2.5,1.9c0.6,0.9,1.1,1.9,1.3,3c0.3,1.1,0.4,2.5,0.4,4.1v20
			c0,0.9,0.3,1.7,1,2.3c0.6,0.6,1.4,0.9,2.3,0.9c0.9,0,1.7-0.3,2.3-0.9c0.6-0.6,0.9-1.4,0.9-2.3V102.7z"/>
		<path class="st0" d="M301.4,184.4c-1.2-1.1-2.6-2.1-4.1-3c-1.5-0.9-3.1-1.6-4.8-2.2c-1.6-0.6-3.3-1.2-4.9-1.7
			c-1.6-0.5-3.2-1.1-4.6-1.7c-1.4-0.6-2.7-1.2-3.8-1.9c-1.1-0.7-1.9-1.5-2.5-2.5c-0.6-1-0.9-2.1-0.9-3.3c0-2.3,0.8-4.1,2.5-5.6
			c1.7-1.5,4.4-2.2,8.1-2.2c5,0,8.9,1.9,12.2,5.9c0.7,0.9,1.6,1.3,2.7,1.3c0.9,0,1.7-0.3,2.3-0.9c0.6-0.6,0.9-1.4,0.9-2.3
			c0-0.7-0.2-1.3-0.6-1.9c-1.8-2.6-4.2-4.7-7.2-6.2c-3-1.5-6.5-2.3-10.3-2.3c-5.6,0-10,1.4-13,4c-3,2.7-4.5,6.1-4.5,10.2
			c0,2.1,0.4,4,1.1,5.6c0.7,1.6,1.7,3,2.9,4.1c1.2,1,2.6,2,4.1,2.8c1.5,0.8,3.1,1.5,4.8,2c1.6,0.6,3.3,1.1,4.9,1.6
			c1.6,0.5,3.2,1.1,4.6,1.7c1.4,0.6,2.7,1.3,3.8,2c1,0.7,1.9,1.6,2.5,2.7c0.6,1.1,0.9,2.3,0.9,3.8c0,3.2-1,5.5-3.2,7.2
			c-2.2,1.6-5.4,2.5-9.6,2.5c-3.1,0-5.8-0.7-8-2c-2.2-1.3-4-3-5.3-5.2c-0.7-1.1-1.7-1.6-2.9-1.6c-0.9,0-1.7,0.3-2.3,1
			c-0.6,0.6-0.9,1.4-0.9,2.3c0,0.6,0.2,1.2,0.5,1.8c1.5,2.9,4,5.3,7.4,7.2c3.4,1.9,7.3,2.9,11.7,2.9c6.2,0,11.1-1.4,14.5-4.1
			c3.4-2.8,5.2-6.8,5.2-11.9c0-2.1-0.4-4.1-1.1-5.8C303.6,187,302.6,185.5,301.4,184.4z"/>
		<path class="st0" d="M327.3,171c-5.4,0-9.7,1.7-12.7,5c-3,3.3-4.5,8.2-4.5,14.7c0,6.5,1.5,11.4,4.6,14.7c3,3.3,7.3,5,12.7,5
			c5.5,0,9.8-1.7,12.8-5c3-3.3,4.5-8.3,4.5-14.7c0-6.5-1.5-11.4-4.5-14.7C337.1,172.7,332.8,171,327.3,171z M338,190.7
			c0,9.2-3.5,13.6-10.6,13.6c-7.2,0-10.6-4.5-10.6-13.6c0-9.1,3.5-13.6,10.6-13.6C334.5,177.1,338,181.5,338,190.7z"/>
		<path class="st0" d="M380.7,177.6c-0.7-1.3-1.6-2.5-2.7-3.4c-1.1-0.9-2.6-1.7-4.5-2.3c-1.8-0.6-4-0.9-6.4-0.9
			c-2.6,0-4.9,0.6-6.9,1.7c-1.1,0.6-2.1,1.4-2.8,2.2v-0.1c0-0.9-0.3-1.7-0.9-2.3c-1.3-1.2-3.4-1.2-4.7,0c-0.6,0.6-1,1.4-1,2.3v32
			c0,0.9,0.3,1.7,1,2.3c1.3,1.2,3.4,1.2,4.7,0c0.6-0.6,0.9-1.4,0.9-2.3v-19.4c0-6.9,3.2-10.3,9.7-10.3c1.8,0,3.2,0.2,4.4,0.7
			c1.1,0.4,1.9,1.1,2.5,1.9c0.6,0.9,1.1,1.9,1.3,3c0.3,1.1,0.4,2.5,0.4,4.1v20c0,0.9,0.3,1.7,1,2.3c0.6,0.6,1.4,0.9,2.3,0.9
			c0.9,0,1.7-0.3,2.3-0.9c0.6-0.6,0.9-1.4,0.9-2.3v-21c0-1.5-0.1-2.9-0.3-4.2C381.9,180.2,381.4,178.9,380.7,177.6z"/>
		<path class="st0" d="M407.1,171.2c-2.8,0-5.2,0.6-7.2,1.8c-1.2,0.7-2.1,1.5-2.9,2.5v-0.7c0-0.9-0.3-1.7-0.9-2.3
			c-1.3-1.2-3.4-1.2-4.7,0c-0.6,0.6-1,1.4-1,2.3v32c0,0.9,0.3,1.7,1,2.3c0.6,0.6,1.4,0.9,2.3,0.9c0.9,0,1.7-0.3,2.3-0.9
			c0.6-0.6,0.9-1.4,0.9-2.3v-17.6c0-3.5,0.9-6.3,2.7-8.4c1.8-2.1,4.2-3.1,7.5-3.1c0.9,0,1.6-0.3,2.3-1c0.6-0.6,0.9-1.4,0.9-2.3
			c0-0.9-0.3-1.6-0.9-2.3C408.7,171.5,408,171.2,407.1,171.2z"/>
		<path class="st0" d="M415.5,172.4c-0.6,0.6-1,1.4-1,2.3v32c0,0.9,0.3,1.7,1,2.3c0.6,0.6,1.4,0.9,2.3,0.9c0.9,0,1.7-0.3,2.3-0.9
			c0.6-0.6,0.9-1.4,0.9-2.3v-32c0-0.9-0.3-1.7-0.9-2.3C418.9,171.2,416.8,171.2,415.5,172.4z"/>
		<path class="st0" d="M422.4,155.3c-0.7,0.1-1.3,0.4-1.8,1l-7,8.5l0,0c-1,1.2-0.8,2.5,0.4,3.4c0.5,0.4,1.1,0.6,1.6,0.6
			c0.6,0,1.2-0.3,1.8-0.8l7.6-7.7c0.6-0.6,0.9-1.2,0.9-1.9c0-0.7-0.4-1.5-1.2-2.2C423.9,155.5,423.1,155.2,422.4,155.3z"/>
		<path class="st0" d="M459.1,180.5c-0.4-1.3-1-2.5-1.8-3.6c-0.8-1.1-1.7-2.1-2.9-3c-1.1-0.9-2.6-1.7-4.3-2.2
			c-1.7-0.5-3.6-0.8-5.7-0.8c-5.3,0-9.6,1.7-12.5,5.2c-3,3.4-4.5,8.3-4.5,14.5c0,6.6,1.6,11.6,4.7,14.8c3.1,3.3,7.5,4.9,13.1,4.9
			c2.2,0,4.3-0.3,6.3-1c2-0.6,3.4-1.3,4.3-1.9c0.9-0.6,1.7-1.2,2.3-1.8c0.7-0.7,1.1-1.5,1.1-2.4c0-0.8-0.3-1.6-0.9-2.2
			c-1-1-2.4-1.4-4.1-0.2c-1.3,1-2.7,1.8-4.1,2.4c-1.3,0.6-3,0.8-4.9,0.8c-3.5,0-6.2-1.1-8.1-3.2c-1.8-2-2.8-4.7-3-8.1h22.2
			c0.9,0,1.6-0.2,2.2-0.5c0.6-0.4,1.1-1,1.3-1.7c0.2-0.6,0.3-1.2,0.4-1.7c0-0.4,0.1-1.1,0.1-1.9c0-1-0.1-2.1-0.3-3.1
			C459.8,182.9,459.5,181.8,459.1,180.5z M453.7,187h-19.5c0.3-3,1.3-5.4,2.9-7.1c1.8-1.9,4.2-2.8,7.3-2.8c1.8,0,3.4,0.3,4.6,0.9
			c1.2,0.6,2.2,1.4,2.8,2.4c0.7,1.1,1.1,2.2,1.4,3.4C453.5,184.7,453.7,185.8,453.7,187z"/>
		<path class="st0" d="M520.3,183.7c-1.2-1.2-2.5-2.3-4-3.2c-1.5-0.9-3-1.7-4.7-2.3c-1.6-0.6-3.2-1.2-4.8-1.7
			c-1.6-0.5-3.1-1-4.5-1.6c-1.4-0.5-2.6-1-3.7-1.6c-1-0.5-1.8-1.2-2.4-1.9c-0.6-0.7-0.8-1.5-0.8-2.5c0-1.5,0.6-2.8,1.9-3.9
			c1.3-1.1,3.4-1.6,6.3-1.6c2,0,4,0.4,5.9,1.1c1.9,0.7,3.4,1.7,4.6,2.9c2.9,2.7,5.6,2.3,7.4,0.5c1-1,1.5-2.1,1.5-3.5
			c0-1-0.3-2-0.9-2.9c-1.7-2.4-4.2-4.3-7.5-5.7c-3.3-1.4-7-2.1-11-2.1c-6.1,0-10.8,1.4-14,4.3c-3.2,2.9-4.9,6.5-4.9,10.9
			c0,2.1,0.3,4.1,1,5.8c0.7,1.7,1.6,3.2,2.8,4.3c1.2,1.1,2.5,2.1,4,3c1.5,0.9,3,1.6,4.6,2.2c1.6,0.6,3.2,1.1,4.8,1.6
			c1.6,0.5,3.1,1,4.5,1.6c1.4,0.5,2.6,1.1,3.7,1.7c1,0.6,1.8,1.3,2.4,2.2c0.6,0.8,0.8,1.8,0.8,2.8c0,4.4-3.2,6.5-9.8,6.5
			c-4.4,0-8.5-2-12.4-5.9c-1.3-1.3-2.6-2-4-2c-1.3,0-2.5,0.5-3.5,1.5c-1,1-1.5,2.2-1.5,3.5c0,0.9,0.3,1.8,0.8,2.6
			c1.7,2.8,4.5,5.2,8.2,7.1c3.7,1.9,7.8,2.9,12.4,2.9c6.6,0,11.7-1.4,15.2-4.3c3.6-2.9,5.4-6.9,5.4-12c0-2.2-0.3-4.2-1-6
			C522.4,186.5,521.5,184.9,520.3,183.7z"/>
		<path class="st0" d="M565.7,154.2c-1.5,0-2.7,0.5-3.8,1.6c-1,1-1.6,2.3-1.6,3.8v31.7c0,1.3-0.1,2.4-0.4,3.5c-0.3,1-0.8,2.1-1.4,3
			c-0.6,0.9-1.6,1.7-3,2.2c-1.4,0.6-3.1,0.9-5.1,0.9c-2,0-3.7-0.3-5.1-0.9c-1.3-0.6-2.3-1.3-3-2.2c-0.7-1-1.2-2-1.4-3.1
			c-0.3-1.1-0.4-2.2-0.4-3.5v-31.7c0-1.5-0.5-2.8-1.6-3.8c-1-1-2.3-1.6-3.8-1.6c-1.5,0-2.8,0.5-3.8,1.6c-1,1-1.6,2.3-1.6,3.8v31.7
			c0,2,0.2,3.8,0.5,5.5c0.4,1.7,1,3.5,2,5.2c1,1.7,2.2,3.2,3.7,4.4c1.5,1.2,3.5,2.2,6,3c2.4,0.7,5.3,1.1,8.4,1.1
			c3.1,0,6-0.4,8.4-1.1c2.5-0.7,4.5-1.7,6-3c1.5-1.2,2.8-2.7,3.7-4.4c1-1.7,1.6-3.5,2-5.2c0.4-1.7,0.5-3.6,0.5-5.5v-31.7
			c0-1.5-0.5-2.8-1.6-3.8C568.5,154.7,567.2,154.2,565.7,154.2z"/>
		<path class="st0" d="M604.9,188.3c2-0.5,3.9-1.4,5.5-2.7c2-1.6,3.4-3.6,4.4-6c1-2.3,1.5-4.8,1.5-7.5c0-3.1-0.7-6-2-8.5
			c-1.3-2.6-3.4-4.7-6-6.3c-2.7-1.6-5.8-2.4-9.4-2.4h-15c-1.5,0-2.8,0.5-3.8,1.6c-1,1-1.5,2.3-1.5,3.8v44.5c0,1.5,0.5,2.7,1.6,3.8
			c1,1,2.3,1.6,3.8,1.6c1.5,0,2.8-0.5,3.8-1.5c1-1,1.5-2.3,1.5-3.8v-15.6h4l14,18.9c1,1.3,2.4,2,4.2,2c1.5,0,2.8-0.5,3.8-1.6
			c1-1,1.6-2.3,1.6-3.8c0-1.2-0.4-2.2-1.1-3.3L604.9,188.3z M605.3,172.1c0,2.1-0.5,3.9-1.6,5.3c-1,1.4-2.5,2.1-4.6,2.1h-9.9v-14.9
			h9.6c2.2,0,3.7,0.7,4.8,2.1C604.7,168.1,605.3,169.9,605.3,172.1z"/>
		<path class="st0" d="M652.5,154.9h-24.6c-1.5,0-2.8,0.5-3.8,1.6c-1,1-1.6,2.3-1.6,3.8v44.5c0,1.5,0.5,2.7,1.6,3.8
			c1,1,2.3,1.6,3.8,1.6c1.5,0,2.8-0.5,3.8-1.5c1-1,1.5-2.3,1.5-3.8v-17.5h14.1c1.3,0,2.4-0.5,3.4-1.4c0.9-0.9,1.4-2.1,1.4-3.4
			c0-1.3-0.5-2.5-1.4-3.4c-0.9-0.9-2.1-1.4-3.4-1.4h-14.1v-13h19.2c1.3,0,2.5-0.5,3.4-1.4c0.9-1,1.4-2.1,1.4-3.4s-0.5-2.5-1.4-3.4
			C655,155.4,653.8,154.9,652.5,154.9z"/>
		<path class="st0" d="M681.3,155.8c-1-1-2.3-1.6-3.7-1.6c-0.9,0-2,0.4-3.2,1.1l-11.3,7.3c-1.5,0.9-2.3,2.4-2.3,4.3
			c0,1.4,0.5,2.6,1.5,3.6c1,1,2.2,1.5,3.6,1.5c1.2,0,2.2-0.3,3-1l3.4-2.3v36c0,1.4,0.5,2.7,1.6,3.7c1,1,2.3,1.5,3.7,1.5
			c1.4,0,2.6-0.5,3.7-1.5c1-1,1.6-2.3,1.6-3.7v-45.3C682.9,158.1,682.4,156.8,681.3,155.8z"/>
	</g>
</g>
</svg>
